<?xml version="1.0" encoding="UTF-8" standalone="no"?><!DOCTYPE svg PUBLIC "-//W3C//DTD SVG 1.1//EN" "http://www.w3.org/Graphics/SVG/1.1/DTD/svg11.dtd"><svg width="100%" height="100%" viewBox="0 0 2387 1003" version="1.1" xmlns="http://www.w3.org/2000/svg" xmlns:xlink="http://www.w3.org/1999/xlink" xml:space="preserve" xmlns:serif="http://www.serif.com/" style="fill-rule:evenodd;clip-rule:evenodd;stroke-linejoin:round;stroke-miterlimit:2;"><path d="M2381.354,556.073c0.604,8.883 55.771,266.038 -222.129,341.558c-181.683,49.375 -187.242,-15.85 -566.583,29.321c-385.504,45.908 -392.483,-73.692 -864.392,21.012c-56.383,11.317 -661.842,186.163 -679.658,-160.054c-3.042,-59.1 37.129,-150.233 12.821,-232.662c-3.713,-12.587 -224.717,-392.671 195.15,-498.85c198.463,-50.188 198.346,36.521 587.871,37.262c291.467,0.558 294.196,48.217 660.354,-27.996c68.863,-14.333 621.608,-180.137 782.288,77.575c31.062,49.825 30.433,198.854 30.363,216.329c-0.25,58.912 24.475,59.754 63.921,196.5l-0.004,0.004Z" style="fill:#0a120e;"/><path d="M470.783,86.807c-39.433,29.725 46.312,30.988 68.504,33.917c274.487,36.221 321.208,13.975 443.292,26.912c537.512,56.958 757.833,-150.796 1052.412,-90.379c281.9,57.821 231.346,217.312 230.542,295.067c-1.004,96.708 86.258,185.058 64.517,311.642c-45.35,264.033 -338.096,163.2 -708.754,208.746c-297.971,36.617 -312.058,-13.329 -566.204,-14.933c-364.583,-2.296 -1028.683,283.046 -947.867,-141.637c27.588,-144.967 14.946,-146.783 -39.783,-284.042c-63.592,-159.488 40.504,-392.242 403.346,-345.296l-0.004,0.004Z" style="fill:#43c9a7;"/><path d="M1707.112,533.682c1.358,-17.363 16.346,-208.833 18.958,-216.858c4.725,-14.525 70.675,-19.979 78.067,-17.396c17.283,6.046 -65.779,415.292 13.6,118.221c20.312,-76.008 -6.754,-109.721 72.621,-116.925c12.208,-1.108 14.092,5.812 4.258,153.162c-11.775,176.442 42.729,-106.958 48.467,-130.246c2.412,-9.783 -1.188,-22.804 77.979,-29.312c26.683,-2.196 6.171,17.5 -71.021,327.071c-7.312,29.333 -46.762,33.267 -103.592,37.942c-14.65,1.204 -6.325,-8.229 7.496,-183.583c6.925,-87.842 -43.617,112.617 -46.183,122.792c-18.875,74.867 -40.133,57.546 -99.008,66.046c-10.367,1.496 -13.963,-4.471 -1.637,-130.917l-0.004,0.004Z" style="fill:#060d0b;"/><path d="M1423.046,548.257c49.583,-327.308 236.833,-270.512 256.304,-210.387c65.508,202.287 -225.304,505.225 -256.304,210.387Z" style="fill:#050e0b;"/><path d="M1058.391,497.648c-2.438,95.729 3.329,152.85 -25.542,157.288c-45.117,6.933 -71.767,33.238 -66.871,-12.271c4.858,-45.154 18.896,-68.596 -26.954,-64.008c-26.612,2.662 -9.288,68.858 -58.646,76.3c-59.104,8.913 -59.917,-0.404 -58.65,-4.942c7.717,-27.642 90.25,-323.304 109.638,-341.588c4.871,-4.596 113.904,-15.325 123.85,-16.304c17.875,-1.758 8.554,10.696 3.167,205.525l0.008,-0Z" style="fill:#050e0b;"/><path d="M394.05,562.969c-24.425,-25.483 -41.158,-25.004 -26.096,-41.821c54.096,-60.392 117.012,31.288 122.858,39.808c10.371,15.113 33.938,-43.775 35.721,-48.233c111.033,-277.479 266.829,-235.15 228.171,-199.371c-221.175,204.717 -186.054,343.229 -231.008,378.533c-11.504,9.033 -13.708,1.217 -129.646,-128.917Z" style="fill:#040d09;"/><path d="M1299.471,373.603c11.896,-61.292 7.396,-64.496 18.375,-69.733c12.208,-5.825 65.542,-9.088 71.283,-9.438c25.038,-1.529 -62.546,277.196 -41.983,295.896c14.883,13.538 46.604,-13.929 49.625,45.229c0.575,11.283 -4.729,11.796 -138.317,28.629c-26.946,3.396 38.217,-276.675 41.013,-290.583l0.004,-0Z" style="fill:#050f0c;"/><path d="M1081.941,613.436c0.05,-0.254 44.808,-239.629 55.367,-289.804c3.733,-17.737 5.233,-22.367 77.546,-29.017c31.35,-2.883 -58.229,276.492 -40.933,294.837c17.396,18.45 49.925,-10.938 53.513,46.075c0.696,11.079 -4.558,11.942 -136.229,26.529c-32.75,3.629 -12.746,-15.45 -9.262,-48.625l-0,0.004Z" style="fill:#050e0b;"/><path d="M1617.591,432.111c-10.267,173.383 -127.771,176.575 -119.829,94.438c9.117,-94.317 99.204,-202.988 119.829,-94.438Z" style="fill:#50c5a6;"/><path d="M987.191,417.465c-9.471,86.467 12.517,120.021 -33.392,106.642c-27.183,-7.925 46.946,-268.833 33.392,-106.642Z" style="fill:#7ab6a5;"/></svg>