<?xml version="1.0" encoding="UTF-8" standalone="no"?><!DOCTYPE svg PUBLIC "-//W3C//DTD SVG 1.1//EN" "http://www.w3.org/Graphics/SVG/1.1/DTD/svg11.dtd"><svg width="100%" height="100%" viewBox="0 0 2334 1002" version="1.1" xmlns="http://www.w3.org/2000/svg" xmlns:xlink="http://www.w3.org/1999/xlink" xml:space="preserve" xmlns:serif="http://www.serif.com/" style="fill-rule:evenodd;clip-rule:evenodd;stroke-linejoin:round;stroke-miterlimit:2;"><path d="M415.732,999.231c-17.679,0.204 -343.604,39.004 -365.217,-206.038c-4.254,-48.221 42.779,-170.771 6.083,-260.525c-9.733,-23.804 -126.192,-213.925 6.292,-368.742c44.118,-51.555 119.814,-93.582 207.223,-111.793c57.461,-11.972 119.985,-13.651 181.927,-0.978c189.289,38.726 257.678,41.275 362.14,44.426c57.857,1.745 126.78,3.676 233.439,12.04c361.367,28.342 1003.871,-283.15 1194.925,40.871c51.425,87.217 8.458,193.567 35.688,265.679c22.946,60.758 90.033,168.271 33.175,320.888c-86.579,232.396 -440.754,152.937 -660.783,177.446c-254.454,28.346 -254.229,18.988 -508.908,-1.738c-298.296,-24.275 -385.083,47.721 -725.983,88.458l-0,0.004Z" style="fill:#1a0908;"/><path d="M447.198,86.502c-6.238,10.279 -10.421,9.304 -5.388,19.321c1.45,0.217 2.058,2.442 3.508,2.658c50.708,7.521 49.175,5.558 101.358,13.487c229.979,34.942 276.912,8.292 406.375,24.279c479.025,59.158 760.758,-148.275 1030.833,-91.496c290.975,61.171 229.338,226.479 228.679,302.496c-0.713,82.633 86.571,183.158 67.083,304.579c-41.738,260.071 -375,165.863 -687.408,204.533c-358.175,44.333 -360.4,-46.308 -719.279,-1.833c-116.029,14.379 -822.762,219.733 -770.458,-100.588c27.933,-171.054 30.571,-174.429 -32.542,-335.346c-105.125,-268.046 248.542,-400.125 377.237,-342.092Z" style="fill:#ef3b49;"/><path d="M1209.853,378.802c-2.542,322.138 -255.475,285.025 -252.996,269.275c4.317,-27.404 51.933,-329.763 62.125,-341.15c11.129,-12.433 92.562,-18.496 122.058,-11.454c67.312,16.067 67.808,79.733 68.812,83.329Z" style="fill:#fdf5f5;"/><path d="M1570.353,451.998c2.038,-0.363 4.075,-0.729 6.113,-1.092c25.75,-132.829 24.225,-132.446 31.146,-151.271c3.758,-10.225 39.008,-16.321 42.625,-16.946c27.304,-4.721 9.9,17.375 -41.404,343.883c-2.412,15.346 -68.458,28.196 -74.767,29.421c-12.808,2.492 -15.117,-4.033 -30.208,-160.271c-5.617,-58.154 -19.013,26.137 -19.45,28.887c-14.392,90.571 8.708,121.542 -81.096,137.804c-19.004,3.442 -11.683,-12.204 30.492,-239.488c17.213,-92.763 -8.008,-134.713 85.904,-132.488c28.371,0.671 34.483,158.633 50.642,161.558l0.004,0Z" style="fill:#fdf5f5;"/><path d="M1773.769,423.231c1.942,-0.542 3.887,-1.083 5.829,-1.625c37.221,-105.042 36.329,-105.15 39.75,-114.2c6.338,-16.775 65.254,-2.713 70.758,-1.4c43.55,10.392 -75.142,117.088 -119.167,304.821c-15.521,66.179 -94.325,46.988 -91.396,29.75c14.871,-87.583 27.125,-86.938 12.154,-275.808c-4.329,-54.604 7.6,-54.767 60.196,-73.054c35.825,-12.458 3.171,128.454 21.875,131.512l0,0.004Z" style="fill:#fdf5f6;"/><path d="M632.357,532.665c-41.642,-30.321 -132.75,135.542 -165.404,120.412c-50.713,-23.496 64.104,-114.104 106.662,-159.067c21.287,-22.488 -142.646,-140.4 -126.317,-164.467c25.471,-37.533 32.858,-3.071 157.562,107.083c29.275,25.858 136.175,-132.042 159.192,-127.342c70.504,14.4 -53.042,116.196 -98.842,159.596c-33.229,31.488 129.675,137.212 123.196,164.812c-15.975,68.05 -115.708,-59.458 -156.046,-101.033l-0.004,0.004Z" style="fill:#fdeded;"/><path d="M1325.465,386.631c-0.371,4.175 -4.617,51.854 4.683,52.167c48.967,1.642 76.308,6.712 47.879,46.842c-13.579,19.163 -62.383,-16.796 -73.871,39.217c-2.467,12.021 -15.329,67.321 4.688,65.379c46.137,-4.475 61.775,-19.575 59.613,6.667c-3.417,41.458 -10.042,42.592 -45.525,48.113c-9.513,1.479 -117.542,18.292 -119.996,9.129c-0.546,-2.033 51.779,-349.504 69.671,-354.863c0.992,-0.296 152.946,-16.658 151.262,0.033c-4.712,46.658 -23.671,47.975 -28.129,48.283c-37.467,2.6 -57.183,-16.988 -70.271,39.033l-0.004,-0Z" style="fill:#fdf3f4;"/><path d="M1057.373,524.885c29.133,-148.792 24.896,-150.554 34.292,-159.629c46.746,-45.158 63.633,100.954 -11.067,200.329c-58.146,77.354 -23.483,-39.529 -23.225,-40.696l-0,-0.004Z" style="fill:#ca4551;"/></svg>