<?xml version="1.0" encoding="UTF-8" standalone="no"?><!DOCTYPE svg PUBLIC "-//W3C//DTD SVG 1.1//EN" "http://www.w3.org/Graphics/SVG/1.1/DTD/svg11.dtd"><svg width="100%" height="100%" viewBox="0 0 4437 686" version="1.1" xmlns="http://www.w3.org/2000/svg" xmlns:xlink="http://www.w3.org/1999/xlink" xml:space="preserve" xmlns:serif="http://www.serif.com/" style="fill-rule:evenodd;clip-rule:evenodd;stroke-linejoin:round;stroke-miterlimit:2;"><path d="M3308.809,572.764c68.892,-111.296 69.054,-121.233 76.508,-113.238c7.654,8.213 94.596,101.517 136.3,33.325c46.075,-75.338 -281.808,-146.883 -117.588,-344.163c106.075,-127.429 327.638,-117.45 327.733,-2.379c0.025,28.433 -6.975,57.562 8.875,34.421c154.975,-226.263 394.079,-104.688 346.183,24.65c-5.154,13.921 -138.954,59.175 -138.288,34.833c3.525,-128.704 -82.675,-32.783 -70.317,0.854c7.771,21.15 243.879,135.85 116.692,339.437c-93.954,150.392 -373,84.604 -319.729,-21.642c32.946,-65.713 43.637,-121.029 70.883,-88.983c79.7,93.746 185.75,29.258 109.821,-37.708c-101.154,-89.217 -146.15,-71.821 -141.6,-206.754c0.438,-13.008 -120.504,43.208 -119.629,15.204c3.342,-107.175 -84.933,-34.933 -65.354,8.079c2.688,5.904 264.079,158.221 86.433,358.837c-45.842,51.771 -201.475,113.017 -292.087,0.525c-21.067,-26.154 -11.837,12.338 -26.358,21.079c-6.492,3.908 -270.875,42.525 -274.121,40.142c-9.646,-7.083 92.767,-595.296 116.846,-600.671c51.433,-11.479 226.833,-17.254 246.604,-17.904c22.683,-0.746 5.825,111.642 -29.325,113.708c-27.038,1.592 -102.396,-4.971 -108.383,25.138c-13.696,68.858 -49.246,107.208 21.583,103.967c49.396,-2.258 76.996,-21.863 69.308,26.212c-0.346,2.154 -6.379,82.204 -32.95,82.904c-71.017,1.862 -88.142,-19.662 -95.783,18.975c-21.237,107.392 -15.029,112.508 -6.167,111.421c68.483,-8.4 107.258,-43.033 102.142,26.804c-0.075,1.042 0,0 1.763,12.925l0.004,0Z" style="fill:#380b0c;"/><path d="M1692.05,131.251c-10.804,163.362 -27.129,347.996 -0.229,202.758c4.017,-21.692 48.967,-264.396 67.983,-267.258c140.871,-21.192 148.867,-19.379 146.208,-7.971c-10.088,43.254 -19.5,40.112 -141.763,536.787c-18.021,73.204 -45.271,43.208 -120.346,54.838c-58.767,9.104 -77.183,29.592 -76.375,-3.237c2.583,-105.042 53.321,-426.071 -3.112,-181.429c-40.279,174.604 -44.221,178 -59.221,180.408c-127.187,20.433 -171.562,35.642 -168.863,8.075c31.667,-323.096 34.988,-579.096 67.208,-582.717c66.371,-7.467 147.221,-25.767 141.917,1.308c-7.862,40.133 -91.238,482.475 -22.996,219.504c55.671,-214.525 58.225,-219.446 76.854,-221.775c6.946,-0.871 83,-10.383 87.071,-8.867c13.783,5.142 6.888,9.725 5.663,69.575Z" style="fill:#390b0c;"/><path d="M955.421,284.78c0.725,-1.55 49.233,-131.504 137.004,-195.65c270.513,-197.696 345.671,226.008 162.525,460.913c-163.067,209.142 -447.396,150.3 -299.529,-265.263Z" style="fill:#380a0b;"/><path d="M863.338,276.072c-48.017,248.096 -54.496,263.25 -33.392,262.088c19.404,-1.071 38.733,-3.312 58.133,-4.458c19.342,-1.142 38.092,106.692 7.488,108.529c-117.617,7.071 -116.763,5.496 -232.692,26.308c-20.871,3.746 -6.65,-27.871 -29.088,-26.712c-221.108,11.412 -249.392,44.775 -239.621,12.492c13.512,-44.629 -8.096,-48.625 100.117,-574.221c3.846,-18.675 161.892,-40.225 158.025,-14.417c-0.158,1.05 -75.021,330.1 -92.65,457.95c-4.029,29.208 87.004,-6.879 89.029,21.642c0.196,2.746 8.504,119.963 16.833,29.983c1.025,-11.05 68.671,-504.812 106.246,-509.954c10.817,-1.479 133.425,-18.258 136.308,-6.133c4.104,17.237 -2.421,15.887 -44.742,216.908l0.004,-0.004Z" style="fill:#380c0d;"/><path d="M2352.455,138.509c-18.312,362.742 -7.337,505.5 -33.337,509.696c-11.146,1.8 -138.392,22.346 -140.35,14.754c-9.146,-35.417 42.879,-134.167 -26.867,-130.867c-49.396,2.338 -23.133,112.142 -80.254,119.438c-10.042,1.283 -125.442,16.021 -126.504,3.108c-0.188,-2.287 166.342,-578.204 176.471,-583.171c24.867,-12.183 207.917,-24.579 226.079,-25.808c7.35,-0.496 10.433,2.371 4.763,92.85Z" style="fill:#3a0c0d;"/><path d="M412.846,72.914c-15.717,157.108 -16.554,565.854 -33.467,573.008c-1.408,0.596 -133.838,22.037 -136.963,20.479c-19.479,-9.733 30.817,-136.867 -22.558,-135.038c-57.158,1.958 -47.746,114.333 -72.35,117.313c-141.633,17.142 -149.871,17.154 -147.121,5.7c10.733,-44.742 16.771,-42.292 164.392,-551.15c15.492,-53.396 37.2,-29.95 228.925,-55.142c26.379,-3.467 19.412,8.808 19.146,24.829l-0.004,-0Z" style="fill:#390b0c;"/><path d="M1282.634,459.247c-156.542,315.192 -407.054,211.108 -340.108,-65.612c95.042,-392.846 428.475,-437.671 392.358,-117.375c-10.825,96.004 -17.142,93.833 -52.254,182.988l0.004,0Z" style="fill:#ce3132;"/><path d="M1859.363,145.443c-127.683,448.958 -106.25,467.904 -136.071,472.421c-77.4,11.729 -134.554,24.763 -132.675,0.183c6.279,-82.233 33.271,-313.758 -3.638,-281.117c-27.229,24.079 -71.15,285.496 -102.713,290.596c-77.083,12.454 -124.846,26.288 -123.367,4.958c2.971,-42.733 35.688,-513.55 46.504,-533.438c141.421,-259.987 98.321,72.892 97.012,83.025c-2.767,21.371 -57.971,314.617 -9.058,251.254c20.7,-26.817 92.308,-339.2 126.633,-343.446c83.321,-10.308 47.896,37.633 43.317,121.396c-3.062,55.958 -24.558,293.362 18.654,216.129c24.862,-44.442 64.4,-337.112 96.846,-341.942c15.088,-2.246 83.55,-11.454 87.45,-11.267c5.737,0.275 7.692,3.663 -8.896,71.25l0,-0.004Z" style="fill:#cd3132;"/><path d="M2846.58,450.593c-1.329,48.988 -4.671,81.321 37.3,56.096c33.337,-20.038 32.737,-78.354 58.938,-68.383c65.837,25.062 110.804,14.571 78.929,77.162c-130.046,255.392 -316.075,159.433 -322.6,0.354c-21.342,-520.325 427.9,-550.775 394.246,-326.196c-4.642,30.975 -99.413,63.171 -123.683,31.404c-12.65,-16.563 -70.179,-35.054 -123.129,229.562Z" style="fill:#360b0b;"/><path d="M2159.225,88.972c156.017,-13.288 154.567,-20.783 167.492,-16.988c22.579,6.633 -11.146,502.667 -14.112,546.283c-0.875,12.862 -94.833,22.837 -103.258,23.729c-12.942,1.375 -1.592,-55.1 -0.725,-96.683c1.129,-53.967 -24.179,-36.167 -78.383,-33.337c-16.238,0.846 -40.929,90.592 -43.221,98.917c-4.829,17.554 -93.804,28.275 -102.254,29.292c-13.075,1.575 -13.929,-2.483 -10.188,-15.454c146.954,-509.508 140.596,-525.05 184.646,-535.767l0.004,0.008Z" style="fill:#ce3032;"/><path d="M2511.621,406.826c-1.329,7.942 -27.292,163.067 37.783,93.262c23.025,-24.7 24.717,-70.367 52.058,-61.525c21.958,7.1 133,5.896 49.579,127.254c-198.071,288.146 -414.375,-43.204 -217.467,-377.238c135.029,-229.062 378.8,-115.796 314.55,16.142c-5.154,10.583 -96.062,47.733 -119.262,15.696c-10.333,-14.271 -61.646,-36.942 -117.242,186.412l0,-0.004Z" style="fill:#360b0c;"/><path d="M212.809,89.747c155.717,-13.967 178.658,-37.542 176.525,-2.213c-14.392,238.429 -7.696,242.154 -20.217,501.242c-3.2,66.237 -32.125,44.021 -98.483,52.079c-25.15,3.054 13.996,-121.737 -14.854,-129.846c-92.646,-26.046 -87.825,14.321 -113.812,107.838c-8.067,29.033 -20.887,10.8 -96.358,19.612c-24.212,2.825 -13.208,-10.783 -6.367,-34.708c139.596,-488.275 131.15,-504.838 173.571,-514.004l-0.004,-0Z" style="fill:#ce2f32;"/><path d="M3652.792,479.847c-63.008,274.025 -342.421,150.129 -313.667,88.612c35.233,-75.375 41.042,-75.558 46.65,-71.642c10.442,7.287 126.654,88.429 159.129,-2.783c37.983,-106.675 -281.938,-146.713 -118.896,-338.017c115.633,-135.671 346.425,-68.779 280.438,40.963c-2.008,3.337 -82.35,31.954 -86.596,21.1c-22.967,-58.767 -29.646,-85.546 -80.338,-49.696c-8.033,5.683 -86.2,60.967 -0.579,122.992c95.696,69.329 110.233,70.033 113.854,188.462l0.004,0.008Z" style="fill:#ce2e30;"/><path d="M4002.396,508.768c-7.317,19.679 -62.675,168.546 -223.479,137.608c-38.037,-7.317 -96.858,-52.642 -87.983,-72.092c37.367,-81.862 44.25,-81.558 50.3,-77.329c10.662,7.454 133.892,93.604 162.325,-9.429c23.683,-85.817 -326.342,-189.258 -86.521,-360.771c168.671,-120.629 293.687,12.208 249.129,66.667c-44.404,54.271 -75.35,63.171 -96.863,-4.517c-23.304,-73.317 -211.421,8.354 -52,116.008c103.471,69.871 93.604,116.721 85.092,203.85l0,0.004Z" style="fill:#ce2f31;"/><path d="M2824.913,443.309c-3.042,87.35 23.713,136.8 82.096,72.817c16.908,-18.529 27.875,-55.892 50.562,-48.45c79.846,26.188 48.033,58.367 -7.912,120.317c-160.458,177.675 -320.688,-46.017 -177.35,-353.396c109.596,-235.021 344.496,-158.092 302.004,-45.092c-4.421,11.762 -73.821,19.183 -80.467,16.804c-27.671,-9.904 -107.242,-61.442 -168.929,237.004l-0.004,-0.004Z" style="fill:#cd3030;"/><path d="M2521.396,305.326c-85,233.987 -9.833,237.129 7.908,231.717c61.467,-18.746 42.729,-83.846 93.825,-68.55c67.321,20.154 38.875,47.15 -2.6,103.383c-159.704,216.521 -337.812,-36.713 -187.229,-339.692c109.408,-220.125 331.529,-174.875 297.767,-43.529c-2.729,10.613 -72.812,21.612 -77.379,19.533c-78.479,-35.813 -82.125,3.1 -132.292,97.142l0,-0.004Z" style="fill:#cd3132;"/><path d="M4131.909,443.172c1.133,-5.129 4.025,-91.004 76.667,-165.267c77.596,-79.325 92.608,-80.4 78.917,-95.921c-31.871,-36.142 -121.338,57.596 -131.696,64.475c-26.642,17.692 -74.833,-96.796 -47.796,-119.329c211.733,-176.467 491.512,7.275 209.654,231.125c-84.683,67.258 -59.167,106.429 -88.479,107.971c-68.087,3.587 -99.412,15.887 -97.271,-23.054l0.004,0Z" style="fill:#370a0c;"/><path d="M3225.242,196.514c-16.738,101.071 -34.271,114.742 -6.087,118.188c38.171,4.671 102,-25.963 91.304,41.275c-10.213,64.179 -105.346,-21.025 -121.696,65.596c-6.55,34.704 -36.417,134.729 1.821,133.663c5.012,-0.142 91.4,-11.85 94.137,-9.613c2.562,2.092 8.442,64.237 -13.65,67.629c-214.767,32.971 -228.688,37.267 -226.113,19.296c5.196,-36.304 95.15,-528.458 100.812,-538.446c4.3,-7.579 7.346,-3.975 204.508,-19.354c40.596,-3.167 14.7,67.854 -0.579,68.85c-78.3,5.092 -106.971,-24.729 -124.463,52.921l0.004,-0.004Z" style="fill:#cd3031;"/><path d="M459.792,635.309c-27.283,3.733 -42.229,16.846 -39.392,-10c13.067,-123.654 89.129,-533.642 97.754,-536.683c7.958,-2.808 113.508,-40.033 105.304,6.104c-76.621,430.879 -105.646,464.429 -54.975,462.763c21.421,-0.704 67.95,-28.854 66.754,53.721c-0.204,14.167 -7.933,8.204 -175.442,24.1l-0.004,-0.004Z" style="fill:#ce3032;"/><path d="M864.525,167.426c-63.621,285.975 -78.254,386.629 -62.942,390.008c41.254,9.104 85.333,-34.629 88.608,53.812c0.617,16.608 -9.067,9.279 -205.588,29.804c-19.325,2.017 -3.463,-61.408 78.758,-509.887c12.317,-67.183 36.042,-48.004 102.992,-54.75c34.688,-3.496 12.096,18.017 -1.833,91.013l0.004,-0Z" style="fill:#cd3031;"/><path d="M4201.105,320.984c70.429,-76.879 163.017,-148.483 85.896,-167.217c-54.533,-13.25 -118.046,54.421 -130.875,63.917c-4.375,3.237 -11.992,5.492 -37,-57.075c-13.004,-32.529 153.658,-119.629 246.404,-69.375c164.833,89.312 -106.946,289.117 -119.075,310.608c-25.742,45.596 -30.942,44.562 -83.246,43.775c-34.475,-0.521 32.65,-115.625 37.9,-124.625l-0.004,-0.008Z" style="fill:#cd3234;"/><path d="M1031.959,458.126c3.817,-21.779 36.012,-205.542 124.987,-246.537c55.212,-25.438 83.546,17.796 88.575,42.775c38.842,192.85 -195.138,419.992 -213.562,203.763Z" style="fill:#3a0b0c;"/><path d="M1059.584,421.434c52.221,-239.942 163.392,-213.521 166.296,-144.475c8.429,200.138 -189.204,362.079 -166.296,144.475Z" style="fill:#fcfbfb;"/><path d="M4094.05,575.351c3.221,-6.417 26.671,-53.108 63.229,-63.683c50.367,-14.571 89.242,7.429 100.242,19.821c109.046,122.896 -194.896,252.558 -163.467,43.862l-0.004,0Z" style="fill:#360a0b;"/><path d="M2164.596,312.526c106.846,-419.6 75.754,129.087 37.471,134.992c-95.258,14.692 -60.146,-41.771 -37.471,-134.992Z" style="fill:#41080a;"/><path d="M203.146,385.072c29.779,-117.083 51.583,-225.483 74.658,-227.213c35.113,-2.633 1.317,282.354 -13.479,287.962c-58.408,22.129 -74.783,1.067 -61.179,-60.75Z" style="fill:#420a0b;"/><path d="M4171.492,532.526c125.688,-14.817 79.908,86.821 69.992,98.175c-77.508,88.771 -208.792,-32.083 -69.992,-98.175Z" style="fill:#cd3434;"/><path d="M2210.492,204.501l10.1,4.338c-7.196,60.387 -19.142,213.896 -27.333,216.979c-47.762,17.971 -21.637,-55.367 17.233,-221.321l0,0.004Z" style="fill:#f2ecea;"/><path d="M224.238,392.293c43.146,-178.658 40.367,-196.325 50.692,-184.975c4.217,4.638 -20.354,212.45 -20.904,213.167c-2,2.6 -40.742,40.192 -29.787,-28.192Z" style="fill:#f2eceb;"/><path d="M2210.492,204.501c5.942,-5.217 10.738,-6.938 10.1,4.338l-10.1,-4.338Z" style="fill:#7c5655;"/></svg>