<?xml version="1.0" encoding="UTF-8" standalone="no"?><!DOCTYPE svg PUBLIC "-//W3C//DTD SVG 1.1//EN" "http://www.w3.org/Graphics/SVG/1.1/DTD/svg11.dtd"><svg width="100%" height="100%" viewBox="0 0 4823 1530" version="1.1" xmlns="http://www.w3.org/2000/svg" xmlns:xlink="http://www.w3.org/1999/xlink" xml:space="preserve" xmlns:serif="http://www.serif.com/" style="fill-rule:evenodd;clip-rule:evenodd;stroke-linejoin:round;stroke-miterlimit:2;"><path d="M805.451,59.544c14.775,20.542 240.35,34.154 266.2,33.933c270.183,-2.317 268.317,-16.879 588.292,-16.325c2176.162,3.771 2189.517,-72.113 2227.579,-31.258c6.629,7.117 23.192,42.496 39.829,53c29.279,18.488 27.833,-1.496 71.196,-34.029l7.387,7.25c-7.529,13.104 -5.696,13.071 -2.579,27.967c1.238,22.871 -47.792,94.579 25.113,129.967c36.125,17.533 102.346,-37.004 71.271,-99.471c-61.717,-124.067 63.571,-94.942 72.758,-92.804c31.196,7.25 528.292,6.233 574.233,6.142c48.812,-0.1 -64.521,230.404 -43.337,245.875c8.75,6.392 67.046,27 57.496,65.487c-38.437,154.912 -27.188,156.296 1.917,312.221c3.946,21.142 -24.308,40.758 -10.7,95.079c13.925,55.588 13.317,61.375 -32.392,96.808c-79.258,61.438 96.304,82.529 57.421,143.229c-31.675,49.442 -38.6,56.492 -2.038,101.404c11.342,13.929 4.758,15.754 -2.275,224.529c-2.171,64.471 -151.087,-31.471 -665.5,18.412c-205.071,19.888 -218.317,-119.537 -332.358,-37.933c-7.321,5.242 -80.804,57.821 -104.025,42.988c-18.687,-11.938 -96.946,-157.7 -132.175,-60.608c-7.925,21.837 -15.883,78.667 -48.6,79.183c-498.45,7.896 -497.517,4.937 -994.938,16.675c-585.375,13.813 -584.454,1.75 -1169.346,22.213c-598.262,20.929 -598.033,-11.196 -806.254,-1.175c-41.792,2.012 -376.296,28.904 -374.692,6.992c9.179,-125.45 54.883,-135.683 6.067,-183.075c-45.704,-44.367 92.162,-91.746 4.875,-134.854c-84.612,-41.783 -16.042,-92.229 -31.196,-291.458c-7.787,-102.375 -22.812,-371.171 -17.617,-376.175c25.604,-24.65 198.221,-81.404 62.433,-151.208c-13.492,-6.937 -27.65,-12.508 -41.233,-19.262c-23.417,-11.646 0.271,-22.796 -24.854,-143.167c-7.162,-34.321 22.042,-8.158 438.1,-12.238c27.692,-0.271 65.921,84.15 116.213,55.583c30.85,-17.525 30.458,-15.758 64.017,-25.546c10.387,-3.029 6.346,-5.95 0.162,-15.458l7.5,0.338c35.738,-34.017 34.604,-33.575 76.058,-59.225l-0.008,-0.004Z" style="fill:#f0eddc;"/><path d="M4003.36,100.081c5.175,1.333 10.346,2.667 15.521,4c46.954,20.383 22.442,-80.658 67.754,-95.317c51.904,-16.796 53.421,-5.229 681.9,0.058c62.033,0.521 -2.508,201.288 -21.567,230.479c-36.325,55.642 17.054,57.175 34.329,67.842c71.542,44.175 -47.617,76.387 11.179,323.742c18.125,76.258 -17.667,96.142 -6.967,123.267c31.837,80.721 9.983,83.458 -44.925,132.192c-3.333,2.958 -4.592,7.442 40.458,38.325c100.042,68.583 -15.35,111.75 9.025,142.742c36.371,46.242 22.504,51.058 19.067,108.504c-7.638,127.738 65.017,192.229 -62.621,202.146c-360.767,-6.796 -360.654,-3.842 -391.888,-6.608c-128.083,-11.346 -126.817,-2.662 -254.021,10.075c-180.583,18.088 -225.842,-102.925 -310.4,-42.713c-97.512,69.438 -123.467,68.163 -194.112,-29.546c-23.746,-32.838 -32.658,7.312 -56.154,83.296c-19.579,13.467 -19.458,9.946 -43.025,13.113c-492.933,-13.608 -2441.717,55.512 -2759.237,43.421c-548.463,-20.892 -640.158,56.279 -629.513,-25.846c18.512,-142.863 32.192,-141.817 25.488,-152.179c-37.392,-57.833 -42.192,-68.458 7.354,-117.508c18.758,-18.571 -36.408,-39.592 -48.438,-51.6c-27.317,-27.275 14.6,-367.663 -28.663,-637.571c-0.379,-48.921 2.487,-50.954 44.579,-76.487c43.579,-24.542 43.513,-24.046 47.067,-26.504c49.712,-34.421 12.117,-46.879 -42.004,-72.713c-45,-21.479 -25.071,-35.279 -41.546,-151.604c-37.6,-130.246 67.642,-47.883 447.504,-66.908c86.346,-4.325 87.617,76.562 131.537,62.012c35.129,-11.642 33.4,-16.692 70.842,-13.754c6.183,9.508 10.225,12.429 -0.162,15.458c-33.554,9.783 -33.163,8.021 -64.017,25.546c-50.292,28.567 -88.521,-55.854 -116.213,-55.583c-416.063,4.079 -445.263,-22.083 -438.1,12.238c25.121,120.371 1.438,131.521 24.854,143.167c13.583,6.754 27.742,12.329 41.233,19.263c135.788,69.804 -36.825,126.558 -62.433,151.208c-5.2,5.004 9.829,273.8 17.617,376.175c15.154,199.229 -53.413,249.675 31.196,291.458c87.287,43.108 -50.575,90.483 -4.875,134.854c48.817,47.387 3.113,57.625 -6.067,183.075c-1.604,21.912 332.9,-4.979 374.692,-6.992c208.221,-10.021 207.992,22.108 806.254,1.175c584.892,-20.462 583.971,-8.404 1169.346,-22.213c497.421,-11.737 496.487,-8.779 994.938,-16.675c32.717,-0.517 40.679,-57.346 48.6,-79.183c35.229,-97.092 113.488,48.671 132.175,60.608c23.221,14.833 96.7,-37.746 104.025,-42.988c114.042,-81.604 127.288,57.817 332.358,37.933c514.413,-49.883 663.329,46.054 665.5,-18.413c7.033,-208.771 13.617,-210.596 2.275,-224.529c-36.562,-44.908 -29.633,-51.958 2.038,-101.404c38.883,-60.7 -136.679,-81.787 -57.421,-143.229c45.708,-35.433 46.317,-41.221 32.392,-96.808c-13.608,-54.321 14.646,-73.938 10.7,-95.079c-29.104,-155.921 -40.354,-157.304 -1.917,-312.221c9.55,-38.487 -48.746,-59.096 -57.496,-65.487c-21.183,-15.471 92.15,-245.975 43.337,-245.875c-45.942,0.096 -543.037,1.112 -574.233,-6.142c-9.187,-2.137 -134.475,-31.263 -72.758,92.804c31.075,62.467 -35.146,117.008 -71.271,99.471c-72.904,-35.387 -23.875,-107.096 -25.113,-129.967l0.021,-0Z" style="fill:#201f1a;"/><path d="M63.918,464.381c43.262,269.912 1.346,610.3 28.663,637.571c12.029,12.008 67.196,33.029 48.438,51.6c-49.546,49.05 -44.75,59.675 -7.354,117.508c6.704,10.367 -6.975,9.317 -25.487,152.179c-10.642,82.125 81.05,4.954 629.513,25.846c317.517,12.096 2266.3,-57.029 2759.237,-43.421c-11.196,22.742 -9.208,22.254 -15.646,45.983c-12.262,45.204 -354.512,11.329 -506.792,20.517c-70.196,4.238 -468.871,28.296 -878.75,23.512c-874.7,-10.204 -878.446,51.621 -1438.171,23.271c-269.4,-13.646 -268.121,14.492 -537.358,10.275c-158.792,-2.487 -18.392,-113.058 -77.096,-223.533c-25.546,-48.075 52.583,-99.221 24.583,-112.75c-94.029,-45.437 -35.813,-103.842 -39.542,-292.925c-0.517,-26.171 -4.908,-248.921 -17.079,-326.729c-10.742,-68.679 -23.2,-90.8 52.837,-108.904l0.004,0Z" style="fill:#b5b5b4;"/><path d="M805.451,59.544c38.733,-11.908 38.404,-4.029 77.554,1.879c261.346,39.438 261.487,-19.487 675.258,-18.304c1835.988,5.242 1908.617,-44.058 2324.171,-34.963c33.175,0.725 50.95,68.262 70.854,53.85c22.75,-16.467 31.967,-26.9 45.258,2.858c-43.367,32.533 -41.921,52.517 -71.196,34.029c-16.637,-10.504 -33.2,-45.883 -39.829,-53c-38.062,-40.858 -51.417,35.025 -2227.579,31.258c-319.975,-0.554 -318.108,14.012 -588.292,16.325c-25.85,0.221 -251.425,-13.392 -266.2,-33.933Z" style="fill:#22211c;"/><path d="M4746.522,1378.056c-4.175,49.021 -4.133,48.708 -4.513,52.942c-4.087,45.892 -416.604,-17.771 -656.004,15.208c-205.133,28.258 -234.963,-55.196 -312.754,-54.404c-72.546,0.738 -108.287,157.329 -233.3,0.758c23.496,-75.983 32.408,-116.138 56.154,-83.296c70.65,97.708 96.6,98.983 194.112,29.546c84.558,-60.213 129.817,60.8 310.4,42.713c127.2,-12.742 125.933,-21.421 254.021,-10.075c31.233,2.767 31.117,-0.188 391.888,6.608l-0.004,0Z" style="fill:#b3b4b2;"/><path d="M72.01,137.077c16.475,116.325 -3.454,130.125 41.546,151.604c54.121,25.833 91.717,38.292 42.004,72.713c-3.554,2.458 -3.487,1.962 -47.067,26.504c-23.925,-30.179 -36.642,-11.787 -66.508,-34.796c-32.275,-24.862 -16.083,-33.408 -40.542,-171.558c-7.808,-44.1 16.592,-28.908 60.617,-34.575c4.637,-0.596 5.312,-9.296 9.95,-9.892Z" style="fill:#b4b4b1;"/><path d="M4029.064,187.023c-11.446,-26.871 -19.371,-32.829 6.538,-48.417c45.204,-27.196 46.596,80.129 -6.538,48.417Z" style="fill:#b9b8b4;"/><path d="M4005.939,72.114c4.312,10.654 8.629,21.308 12.942,31.967c-5.175,-1.333 -10.346,-2.667 -15.521,-4c-3.117,-14.896 -4.95,-14.862 2.579,-27.967Z" style="fill:#888984;"/></svg>